<svg width="32" height="32" viewBox="0 0 32 32" fill="none" xmlns="http://www.w3.org/2000/svg">
<path d="M18.6667 24.0002V8.00016C18.6667 7.29292 18.3857 6.61464 17.8856 6.11454C17.3855 5.61445 16.7072 5.3335 16 5.3335H5.33332C4.62608 5.3335 3.9478 5.61445 3.4477 6.11454C2.94761 6.61464 2.66666 7.29292 2.66666 8.00016V22.6668C2.66666 23.0205 2.80713 23.3596 3.05718 23.6096C3.30723 23.8597 3.64637 24.0002 3.99999 24.0002H6.66666" stroke="#10B981" stroke-width="2.66667" stroke-linecap="round" stroke-linejoin="round"/>
<path d="M20 24H12" stroke="#10B981" stroke-width="2.66667" stroke-linecap="round" stroke-linejoin="round"/>
<path d="M25.3333 23.9998H28C28.3536 23.9998 28.6928 23.8594 28.9428 23.6093C29.1928 23.3593 29.3333 23.0201 29.3333 22.6665V17.7998C29.3328 17.4973 29.2293 17.2039 29.04 16.9678L24.4 11.1678C24.2753 11.0117 24.1171 10.8855 23.9371 10.7988C23.757 10.712 23.5598 10.6668 23.36 10.6665H18.6667" stroke="#10B981" stroke-width="2.66667" stroke-linecap="round" stroke-linejoin="round"/>
<path d="M22.6667 26.6668C24.1394 26.6668 25.3333 25.4729 25.3333 24.0002C25.3333 22.5274 24.1394 21.3335 22.6667 21.3335C21.1939 21.3335 20 22.5274 20 24.0002C20 25.4729 21.1939 26.6668 22.6667 26.6668Z" stroke="#10B981" stroke-width="2.66667" stroke-linecap="round" stroke-linejoin="round"/>
<path d="M9.33332 26.6668C10.8061 26.6668 12 25.4729 12 24.0002C12 22.5274 10.8061 21.3335 9.33332 21.3335C7.86056 21.3335 6.66666 22.5274 6.66666 24.0002C6.66666 25.4729 7.86056 26.6668 9.33332 26.6668Z" stroke="#10B981" stroke-width="2.66667" stroke-linecap="round" stroke-linejoin="round"/>
</svg>
